<svg width="91" height="91" viewBox="0 0 91 91" fill="none" xmlns="http://www.w3.org/2000/svg">
<g filter="url(#filter0_f_558_3680)">
<circle cx="45.2448" cy="45.2448" r="29.6448" transform="rotate(-180 45.2448 45.2448)" fill="#855EEE"/>
</g>
<circle cx="45.2449" cy="45.2448" r="27.1428" transform="rotate(-180 45.2449 45.2448)" fill="#885EEB"/>
<path d="M32.7476 58.0814C32.4506 58.4774 32.1266 58.8644 31.7756 59.2244L31.5686 58.5314C32.5226 57.4604 33.2246 56.2274 33.6656 54.8414L34.2776 55.1294C34.0436 55.8224 33.7556 56.4794 33.3956 57.1004L33.3956 63.1214L32.7476 63.1214L32.7476 58.0814ZM34.3946 56.0024L36.1496 56.0024L36.4196 54.8414L37.0496 54.9044C36.9596 55.2824 36.8786 55.6514 36.7976 56.0024L39.5156 56.0024L39.5156 56.6324L36.6356 56.6324C36.5366 56.9924 36.4376 57.3434 36.3296 57.6764L39.8846 57.6764L39.8846 58.2974L36.1226 58.2974C35.9786 58.7114 35.8256 59.0894 35.6816 59.4404L39.3806 59.4404L39.3806 59.9984C39.0026 60.6284 38.3996 61.2584 37.5716 61.8884C37.9946 62.1134 38.3996 62.3564 38.7956 62.6174L38.4266 63.1754C37.3286 62.4194 36.1946 61.8254 35.0426 61.3934L35.3846 60.8894C35.9426 61.1054 36.4826 61.3394 37.0046 61.5914C37.7156 61.0964 38.2736 60.5834 38.6876 60.0434L34.8356 60.0434C35.0696 59.4854 35.2946 58.9004 35.5016 58.2974L33.9986 58.2974L33.9986 57.6764L35.6996 57.6764C35.8076 57.3254 35.9066 56.9744 35.9966 56.6324L34.3946 56.6324L34.3946 56.0024ZM42.9676 56.9744L45.9286 56.9744L45.9286 57.5054L42.9676 57.5054L42.9676 56.9744ZM43.2106 58.0814L45.7216 58.0814L45.7216 59.9174L43.2106 59.9174L43.2106 58.0814ZM45.1186 59.4134L45.1186 58.5854L43.8226 58.5854L43.8226 59.4134L45.1186 59.4134ZM48.9706 55.6604L48.9706 56.2544L46.8466 56.2544C46.8826 56.8844 46.9546 57.4064 47.0626 57.8114C47.1256 58.0904 47.1976 58.3424 47.2876 58.5674C47.6116 58.0454 47.8906 57.4424 48.1066 56.7404L48.6106 57.0014C48.3316 57.8834 47.9896 58.6034 47.5756 59.1794L47.6566 59.3054C47.8906 59.6204 48.1066 59.7824 48.3046 59.7824C48.4666 59.7824 48.6376 59.4044 48.8176 58.6574L49.3396 58.9634C49.0696 59.9084 48.7456 60.3854 48.3676 60.3854C48.0076 60.3854 47.6656 60.1964 47.3326 59.8364C47.2786 59.7734 47.2246 59.7104 47.1886 59.6564C46.8916 59.9714 46.5766 60.2234 46.2526 60.4214L45.9196 59.9174C46.2706 59.7104 46.5946 59.4404 46.8826 59.1164C46.7386 58.8284 46.6126 58.4954 46.5046 58.1264C46.3606 57.6224 46.2706 57.0014 46.2256 56.2544L42.5536 56.2544L42.5536 57.4334C42.5266 58.6214 42.2206 59.5844 41.6446 60.3134L41.1586 59.8724C41.6446 59.2874 41.8966 58.4774 41.9236 57.4334L41.9236 55.6604L46.1986 55.6604C46.1806 55.3904 46.1806 55.1024 46.1806 54.8144L46.8016 54.8144C46.8016 55.1114 46.8016 55.3904 46.8196 55.6604L47.8006 55.6604C47.7106 55.4084 47.6116 55.1744 47.5036 54.9584L48.0796 54.8594C48.1786 55.0934 48.2776 55.3634 48.3676 55.6604L48.9706 55.6604ZM42.2026 60.4844L42.7966 60.6104C42.5446 61.4564 42.2026 62.1854 41.7526 62.8064L41.2036 62.4554C41.6536 61.8614 41.9866 61.2044 42.2026 60.4844ZM46.4236 62.9594L44.1916 62.9594C43.6606 62.9594 43.3996 62.6714 43.3996 62.1044L43.3996 60.3854L44.0566 60.3854L44.0566 61.9694C44.0566 62.2214 44.1646 62.3474 44.3896 62.3474L46.3066 62.3474C46.4866 62.3474 46.6216 62.3024 46.7026 62.2124C46.7926 62.1044 46.8646 61.7984 46.9006 61.2764L47.5126 61.4834C47.4586 62.1854 47.3416 62.6084 47.1616 62.7704C46.9996 62.8964 46.7566 62.9594 46.4236 62.9594ZM48.1246 60.6734C48.6646 61.2674 49.0696 61.7894 49.3486 62.2394L48.8356 62.6084C48.5296 62.1224 48.1246 61.5824 47.6026 60.9974L48.1246 60.6734ZM45.2446 60.2324C45.6676 60.6824 45.9916 61.0874 46.2166 61.4294L45.7306 61.7714C45.4966 61.3934 45.1726 60.9794 44.7586 60.5294L45.2446 60.2324ZM51.5046 55.1924L54.2496 55.1924L54.2496 57.3794L51.5046 57.3794L51.5046 55.1924ZM53.6556 56.8304L53.6556 55.7504L52.0896 55.7504L52.0896 56.8304L53.6556 56.8304ZM55.2486 55.1924L58.0476 55.1924L58.0476 57.3794L55.2486 57.3794L55.2486 55.1924ZM57.4626 56.8304L57.4626 55.7504L55.8426 55.7504L55.8426 56.8304L57.4626 56.8304ZM50.7756 58.2794L53.8086 58.2794C53.9796 58.0454 54.1146 57.8024 54.2226 57.5504L54.8436 57.6134C54.7536 57.8474 54.6366 58.0634 54.5106 58.2794L56.8326 58.2794C56.7066 58.0544 56.5716 57.8474 56.4276 57.6674L56.9766 57.4874C57.1656 57.7394 57.3276 58.0004 57.4716 58.2794L58.7136 58.2794L58.7136 58.8554L56.2836 58.8554C56.8686 59.3954 57.7416 59.8274 58.9026 60.1424L58.6416 60.6914C58.4166 60.6194 58.2096 60.5384 58.0116 60.4664L58.0116 63.1124L57.4356 63.1124L57.4356 62.7254L55.7526 62.7254L55.7526 63.1124L55.1766 63.1124L55.1766 60.2774L57.5796 60.2774C56.7156 59.8814 56.0496 59.4044 55.5996 58.8554L54.0786 58.8554C53.5746 59.4314 52.8996 59.8994 52.0536 60.2774L54.3126 60.2774L54.3126 63.1124L53.7366 63.1124L53.7366 62.7254L52.1976 62.7254L52.1976 63.1124L51.6306 63.1124L51.6306 60.4574C51.3876 60.5474 51.1446 60.6284 50.8926 60.7094L50.5956 60.1784C51.7476 59.8364 52.6296 59.3954 53.2596 58.8554L50.7756 58.8554L50.7756 58.2794ZM52.1976 62.1674L53.7366 62.1674L53.7366 60.8174L52.1976 60.8174L52.1976 62.1674ZM55.7526 62.1674L57.4356 62.1674L57.4356 60.8174L55.7526 60.8174L55.7526 62.1674Z" fill="white"/>
<path d="M42.9769 50.2605L51.9199 38.3182C52.0872 38.1037 52.1757 37.8993 52.1757 37.6644C52.1757 37.2762 51.8806 36.9799 51.4674 36.9799H45.9087L48.8405 29.0321C49.2341 27.9798 48.1519 27.4077 47.5123 28.2863L38.5693 40.2183C38.402 40.4431 38.3135 40.6474 38.3135 40.8721C38.3135 41.2706 38.6086 41.5668 39.0218 41.5668H44.5805L41.6487 49.5045C41.2551 50.5567 42.3374 51.1288 42.9769 50.2605ZM43.5573 47.5124L46.8532 40.0447H40.7731L47.1975 31.1876L46.9221 31.0343L43.636 38.5021H49.7063L43.2819 47.3592L43.5573 47.5124Z" fill="white"/>
<defs>
<filter id="filter0_f_558_3680" x="-2.47955e-05" y="-2.47955e-05" width="90.4897" height="90.4897" filterUnits="userSpaceOnUse" color-interpolation-filters="sRGB">
<feFlood flood-opacity="0" result="BackgroundImageFix"/>
<feBlend mode="normal" in="SourceGraphic" in2="BackgroundImageFix" result="shape"/>
<feGaussianBlur stdDeviation="7.8" result="effect1_foregroundBlur_558_3680"/>
</filter>
</defs>
</svg>
