<svg width="91" height="91" viewBox="0 0 91 91" fill="none" xmlns="http://www.w3.org/2000/svg">
<g filter="url(#filter0_f_558_3681)">
<circle cx="45.2448" cy="45.2448" r="29.6448" transform="rotate(-180 45.2448 45.2448)" fill="#855EEE"/>
</g>
<circle cx="45.2449" cy="45.2448" r="27.1428" transform="rotate(-180 45.2449 45.2448)" fill="#885EEB"/>
<path d="M35.4208 52.1837L39.4078 52.1837L39.4078 55.1537L37.5808 55.1537C37.1848 55.5137 36.7978 55.8107 36.4198 56.0537C36.9598 55.9997 37.4818 55.9367 38.0038 55.8467C38.1838 55.7027 38.3548 55.5677 38.5168 55.4237L39.1108 55.6487C38.2288 56.3687 37.3738 56.9447 36.5458 57.3857C37.2838 57.3317 38.0308 57.2597 38.7778 57.1697C38.6338 56.9627 38.4808 56.7737 38.3368 56.6027L38.8228 56.3867C39.2098 56.8187 39.5518 57.2867 39.8398 57.7997L39.3448 58.0517C39.2548 57.8897 39.1648 57.7367 39.0748 57.6017C38.6518 57.6557 38.2378 57.7007 37.8238 57.7367L37.8238 59.2667C37.8238 59.8247 37.5898 60.1037 37.1308 60.1037L36.5458 60.1037L36.4198 59.5457C36.5998 59.5727 36.7708 59.5907 36.9418 59.5907C37.1308 59.5907 37.2298 59.4287 37.2298 59.1227L37.2298 57.7817C36.6268 57.8357 36.0238 57.8717 35.4298 57.8987L35.3128 57.4757C36.0328 57.1427 36.6808 56.7737 37.2748 56.3777C36.6898 56.4497 36.1048 56.5037 35.5288 56.5397L35.4298 56.1437C35.9338 55.8467 36.3928 55.5137 36.8068 55.1537L35.4208 55.1537L35.4208 52.1837ZM38.8138 54.6317L38.8138 53.8937L37.7068 53.8937L37.7068 54.6317L38.8138 54.6317ZM37.1578 54.6317L37.1578 53.8937L36.0148 53.8937L36.0148 54.6317L37.1578 54.6317ZM36.0148 53.4167L37.1578 53.4167L37.1578 52.6967L36.0148 52.6967L36.0148 53.4167ZM37.7068 52.6967L37.7068 53.4167L38.8138 53.4167L38.8138 52.6967L37.7068 52.6967ZM35.8528 58.1597L36.3388 58.4027C36.0148 59.0507 35.6278 59.6177 35.1868 60.0947L34.7278 59.7707C35.1598 59.3207 35.5378 58.7807 35.8528 58.1597ZM38.8318 58.0877C39.3088 58.6817 39.6778 59.2127 39.9298 59.6627L39.4438 59.9867C39.1828 59.5007 38.8318 58.9607 38.3818 58.3667L38.8318 58.0877ZM33.0178 51.8867L33.6298 51.8867L33.6298 53.3627L34.7638 53.3627L34.7638 56.9177L33.6028 56.9177L33.6028 58.5737C33.8728 58.4837 34.1338 58.4027 34.3948 58.3127C34.3048 58.0067 34.2148 57.7097 34.1248 57.4217L34.6018 57.2687C34.7998 57.8267 34.9708 58.4657 35.1328 59.1947L34.6288 59.3207C34.5928 59.1407 34.5568 58.9787 34.5208 58.8167C33.6748 59.1407 32.7658 59.4107 31.8028 59.6267L31.6498 59.0237C32.1088 58.9427 32.5588 58.8437 33.0088 58.7357L33.0088 56.9177L31.8748 56.9177L31.8748 53.3627L33.0178 53.3627L33.0178 51.8867ZM33.0538 53.9297L32.4238 53.9297L32.4238 56.3417L33.0538 56.3417L33.0538 53.9297ZM33.5848 56.3417L34.2058 56.3417L34.2058 53.9297L33.5848 53.9297L33.5848 56.3417ZM46.7028 55.0997L45.1548 55.0997L45.1548 54.4787L48.9708 54.4787L48.9708 54.8927C48.8178 55.5317 48.6468 56.0267 48.4578 56.3777L47.9448 56.1797C48.0888 55.8737 48.2238 55.5137 48.3498 55.0997L47.3058 55.0997L47.3058 56.9807L48.8718 56.9807L48.8718 57.5567L47.3058 57.5567L47.3058 59.3027C47.5668 59.3477 47.8728 59.3747 48.2238 59.3747C48.6378 59.3747 49.0338 59.3567 49.4028 59.3387L49.2768 59.9777L48.6558 59.9777C47.5758 59.9777 46.8378 59.8337 46.4238 59.5457C46.1178 59.3297 45.8568 59.0237 45.6228 58.6097C45.4968 59.2217 45.3168 59.7437 45.0828 60.1667L44.5878 59.7347C45.0288 58.9337 45.2628 57.6917 45.2898 56.0087L45.8568 56.0087C45.8478 56.6927 45.8118 57.3227 45.7398 57.8807C45.9558 58.3577 46.1898 58.7177 46.4508 58.9517C46.5228 59.0057 46.6038 59.0597 46.7028 59.1137L46.7028 55.0997ZM41.2668 53.1917L42.6798 53.1917C42.5448 52.7957 42.3828 52.4087 42.1938 52.0307L42.8148 51.8507C43.0218 52.3007 43.1838 52.7147 43.3008 53.0927L43.0398 53.1917L44.4258 53.1917L44.4258 53.8127L42.6438 53.8127L42.6438 55.0547L44.3268 55.0547C44.3268 57.3407 44.2728 58.7537 44.1828 59.2847C44.0928 59.8247 43.6968 60.0947 42.9858 60.0947C42.9138 60.0947 42.8058 60.0857 42.6528 60.0677L42.4998 59.4827C42.6528 59.5007 42.7788 59.5187 42.8868 59.5187C43.2828 59.5187 43.5258 59.3567 43.5978 59.0327C43.6698 58.6727 43.7058 57.5387 43.7148 55.6487L42.6438 55.6487C42.6078 57.6737 42.2568 59.1677 41.5998 60.1307L41.0958 59.6897C41.7078 58.7987 42.0228 57.3767 42.0318 55.4147L42.0318 53.8127L41.2668 53.8127L41.2668 53.1917ZM45.6498 53.4797C45.3528 54.0737 45.0198 54.5867 44.6598 55.0277L44.2188 54.5057C44.7858 53.8217 45.2448 52.9397 45.5958 51.8417L46.2528 51.9857C46.1448 52.2917 46.0368 52.5887 45.9288 52.8587L49.1688 52.8587L49.1688 53.4797L45.6498 53.4797ZM53.2238 51.9137L53.8628 51.9137L53.8628 56.0717L53.2238 56.0717L53.2238 54.7127C52.5938 55.0637 51.8468 55.3877 51.0008 55.6757L50.7578 55.0907C51.7028 54.8027 52.5218 54.4697 53.2238 54.0827L53.2238 51.9137ZM51.3158 52.4537C51.8738 52.6877 52.3778 52.9667 52.8368 53.2907L52.5128 53.7857C52.0178 53.4257 51.5138 53.1467 50.9918 52.9487L51.3158 52.4537ZM55.9688 51.8867L56.6078 51.9677C56.5178 52.1837 56.4188 52.3907 56.3018 52.5797L58.4078 52.5797L58.4078 53.1017C57.9668 54.4787 56.7428 55.4417 54.7448 55.9997L54.4478 55.4687C55.1318 55.2887 55.7258 55.0547 56.2118 54.7757C55.9418 54.4877 55.6718 54.2447 55.4108 54.0377L55.8608 53.7047C56.1488 53.9477 56.4188 54.1997 56.6708 54.4697C57.1748 54.0917 57.5438 53.6417 57.7688 53.1377L55.8968 53.1377C55.5368 53.5517 55.0778 53.9297 54.5378 54.2627L54.1688 53.7767C55.0598 53.2547 55.6628 52.6247 55.9688 51.8867ZM50.8028 56.8817L54.4208 56.8817L54.4208 56.1707L55.0688 56.1707L55.0688 56.8817L58.6958 56.8817L58.6958 57.4937L55.6898 57.4937C56.3288 58.2137 57.3728 58.8617 58.8128 59.4377L58.3898 59.9687C56.8508 59.2307 55.7618 58.4027 55.1228 57.4937L55.0688 57.4937L55.0688 60.1667L54.4208 60.1667L54.4208 57.4937L54.3578 57.4937C53.6738 58.4927 52.5758 59.3117 51.0548 59.9597L50.7128 59.4017C52.0988 58.8977 53.1248 58.2677 53.7818 57.4937L50.8028 57.4937L50.8028 56.8817Z" fill="white"/>
<g clip-path="url(#clip0_558_3681)">
<path d="M44.6142 35.5633V31.3384C44.6142 29.7289 43.753 28.8367 42.2046 28.8367C39.421 28.8454 36.5157 31.3734 36.5157 33.8488C36.5157 36.1056 38.6033 37.3652 42.222 38.5635L42.7787 37.2952C39.5863 36.2281 37.8466 35.4058 37.8466 33.8488C37.8466 32.0994 40.1517 30.175 42.2046 30.175C43.0136 30.175 43.2833 30.4724 43.2833 31.3384V35.9481L44.6142 35.5633ZM47.911 37.6101H52.1211C53.7217 37.6101 54.6003 36.7529 54.6003 35.1959C54.6003 32.3968 52.0777 29.4665 49.6159 29.4665C47.3717 29.4665 46.119 31.5745 44.9273 35.2221L46.1886 35.782C47.2499 32.5717 48.0676 30.8048 49.6159 30.8048C51.3557 30.8048 53.2694 33.1315 53.2694 35.1959C53.2694 36.0094 52.9823 36.2718 52.1211 36.2718H47.5282L47.911 37.6101ZM45.8755 40.934V45.1677C45.8755 46.7772 46.7279 47.6607 48.2763 47.6607C51.0686 47.6607 53.974 45.124 53.974 42.6485C53.974 40.3917 51.8776 39.1321 48.2589 37.9337L47.7022 39.2021C50.8947 40.2693 52.6431 41.0915 52.6431 42.6485C52.6431 44.3979 50.3379 46.3223 48.2763 46.3136C47.4673 46.3136 47.2064 46.0336 47.2064 45.1677V40.5492L45.8755 40.934ZM42.57 38.8784H38.3598C36.7679 38.8784 35.8893 39.7444 35.8893 41.3014C35.8893 44.1093 38.4033 47.0308 40.865 47.0308C43.1093 47.0308 44.3619 44.9228 45.5536 41.2839L44.2923 40.7241C43.2311 43.9343 42.4134 45.6838 40.865 45.6838C39.1253 45.6838 37.2202 43.3745 37.2202 41.3014C37.2202 40.4879 37.4986 40.2168 38.3598 40.2168H42.9527L42.57 38.8784ZM45.2405 41.5639C47.0585 41.5639 48.5373 40.0768 48.5373 38.2486C48.5373 36.4205 47.0585 34.9335 45.2405 34.9335C43.4224 34.9335 41.9437 36.4205 41.9437 38.2486C41.9437 40.0768 43.4224 41.5639 45.2405 41.5639ZM45.2405 40.2168C44.1618 40.2168 43.2833 39.3333 43.2833 38.2486C43.2833 37.164 44.1618 36.2805 45.2405 36.2805C46.3191 36.2805 47.1977 37.164 47.1977 38.2486C47.1977 39.3333 46.3191 40.2168 45.2405 40.2168ZM45.2405 39.4995C45.9277 39.4995 46.4844 38.9397 46.4844 38.2486C46.4844 37.5576 45.9277 36.9978 45.2405 36.9978C44.5533 36.9978 43.9966 37.5576 43.9966 38.2486C43.9966 38.9397 44.5533 39.4995 45.2405 39.4995Z" fill="white"/>
</g>
<defs>
<filter id="filter0_f_558_3681" x="-2.47955e-05" y="-2.47955e-05" width="90.4897" height="90.4897" filterUnits="userSpaceOnUse" color-interpolation-filters="sRGB">
<feFlood flood-opacity="0" result="BackgroundImageFix"/>
<feBlend mode="normal" in="SourceGraphic" in2="BackgroundImageFix" result="shape"/>
<feGaussianBlur stdDeviation="7.8" result="effect1_foregroundBlur_558_3681"/>
</filter>
<clipPath id="clip0_558_3681">
<rect width="22" height="22" fill="white" transform="translate(34.2448 27.2487)"/>
</clipPath>
</defs>
</svg>
