<svg width="393" height="44" viewBox="0 0 393 44" fill="none" xmlns="http://www.w3.org/2000/svg">
<rect opacity="0.35" x="354.833" y="17.8333" width="21" height="10.3333" rx="2.16667" stroke="white"/>
<path opacity="0.4" d="M377.333 21V25C378.138 24.6612 378.661 23.8731 378.661 23C378.661 22.1269 378.138 21.3388 377.333 21Z" fill="white"/>
<rect x="356.333" y="19.3333" width="18" height="7.33333" rx="1.33333" fill="white"/>
<path d="M336.878 25.7575C338.22 24.6753 340.186 24.6753 341.528 25.7575C341.596 25.8156 341.635 25.8976 341.637 25.9841C341.639 26.0708 341.603 26.1548 341.538 26.2155L339.437 28.238C339.375 28.2974 339.291 28.3308 339.203 28.3308C339.116 28.3308 339.031 28.2974 338.97 28.238L336.868 26.2155C336.803 26.1547 336.768 26.0709 336.77 25.9841C336.772 25.8976 336.811 25.8156 336.878 25.7575ZM334.073 23.0603C336.965 20.4959 341.443 20.4959 344.335 23.0603C344.4 23.1203 344.437 23.2025 344.438 23.2888C344.439 23.3753 344.404 23.4589 344.34 23.5202L343.125 24.6911C343 24.8105 342.797 24.8123 342.669 24.696C341.719 23.8764 340.484 23.4225 339.203 23.4226C337.923 23.4231 336.688 23.8768 335.739 24.696C335.611 24.8122 335.409 24.8102 335.284 24.6911L334.069 23.5202C334.005 23.4589 333.97 23.3754 333.971 23.2888C333.972 23.2026 334.008 23.1203 334.073 23.0603ZM331.27 20.3698C335.705 16.3178 342.701 16.3179 347.136 20.3698C347.2 20.43 347.237 20.5125 347.237 20.5984C347.238 20.6841 347.202 20.766 347.139 20.8269L345.923 21.9978C345.798 22.1179 345.594 22.1189 345.467 22.0007C343.777 20.4692 341.535 19.6151 339.203 19.615C336.871 19.615 334.628 20.469 332.938 22.0007C332.811 22.1191 332.608 22.118 332.482 21.9978L331.267 20.8269C331.203 20.766 331.167 20.6841 331.168 20.5984C331.169 20.5125 331.205 20.43 331.27 20.3698Z" fill="white"/>
<path d="M310.208 24.3337C310.787 24.3337 311.256 24.7814 311.256 25.3337V27.3337C311.256 27.8858 310.787 28.3337 310.208 28.3337H309.16C308.581 28.3337 308.112 27.8858 308.112 27.3337V25.3337C308.112 24.7814 308.581 24.3337 309.16 24.3337H310.208ZM315.099 22.3337C315.677 22.3337 316.146 22.7814 316.146 23.3337V27.3337C316.146 27.8858 315.677 28.3337 315.099 28.3337H314.051C313.472 28.3337 313.003 27.8858 313.003 27.3337V23.3337C313.003 22.7814 313.472 22.3337 314.051 22.3337H315.099ZM319.989 19.9997C320.568 19.9997 321.037 20.4475 321.037 20.9997V27.3337C321.037 27.8858 320.568 28.3337 319.989 28.3337H318.941C318.363 28.3337 317.894 27.8858 317.894 27.3337V20.9997C317.894 20.4475 318.363 19.9997 318.941 19.9997H319.989ZM324.88 17.6667C325.459 17.6667 325.928 18.1144 325.928 18.6667V27.3337C325.928 27.8858 325.459 28.3337 324.88 28.3337H323.832C323.253 28.3337 322.784 27.8858 322.784 27.3337V18.6667C322.784 18.1144 323.253 17.6667 323.832 17.6667H324.88Z" fill="white"/>
<g clip-path="url(#clip0_439_4507)">
<path d="M39.7226 17.4975C41.9785 17.4975 43.9414 19.1015 43.9414 22.9101V22.9247C43.9414 26.4843 42.3374 28.5937 39.6787 28.5937C37.7378 28.5937 36.2876 27.4438 35.9507 25.8251L35.936 25.7446H37.7964L37.8184 25.8178C38.0967 26.5575 38.7485 27.0409 39.6787 27.0409C41.3559 27.0409 42.0664 25.4003 42.147 23.3788C42.147 23.2983 42.1543 23.2177 42.1543 23.1371H42.0078C41.6196 23.9721 40.6968 24.7118 39.2466 24.7118C37.2178 24.7118 35.7969 23.2323 35.7969 21.2255V21.2109C35.7969 19.0649 37.4302 17.4975 39.7226 17.4975ZM39.7153 23.2616C40.9092 23.2616 41.8247 22.3974 41.8247 21.2035V21.1889C41.8247 19.9804 40.9092 19.0356 39.7373 19.0356C38.5727 19.0356 37.6426 19.9657 37.6426 21.1449V21.1596C37.6426 22.3827 38.5142 23.2616 39.7153 23.2616ZM46.9666 21.4819C46.3001 21.4819 45.802 20.9692 45.802 20.3246C45.802 19.6728 46.3001 19.1674 46.9666 19.1674C47.6404 19.1674 48.1311 19.6728 48.1311 20.3246C48.1311 20.9692 47.6404 21.4819 46.9666 21.4819ZM46.9666 26.9164C46.3001 26.9164 45.802 26.4111 45.802 25.7592C45.802 25.1073 46.3001 24.602 46.9666 24.602C47.6404 24.602 48.1311 25.1073 48.1311 25.7592C48.1311 26.4111 47.6404 26.9164 46.9666 26.9164ZM55.1187 28.33V26.3012H49.9478V24.7558C51.3175 22.3754 52.8189 19.9438 54.2545 17.7612H56.9278V24.7411H58.3487V26.3012H56.9278V28.33H55.1187ZM51.7057 24.7851H55.148V19.2699H55.0382C53.9542 20.9252 52.731 22.8808 51.7057 24.6752V24.7851ZM62.4286 28.33V19.6215H62.3041L59.6747 21.4819V19.7021L62.4359 17.7612H64.3183V28.33H62.4286Z" fill="white"/>
</g>
<defs>
<clipPath id="clip0_439_4507">
<rect width="56.592" height="19" fill="white" transform="translate(22.008 14)"/>
</clipPath>
</defs>
</svg>
