<svg width="55" height="55" viewBox="0 0 55 55" fill="none" xmlns="http://www.w3.org/2000/svg">
<foreignObject x="-8.6" y="-8.6" width="71.4857" height="71.4856"><div xmlns="http://www.w3.org/1999/xhtml" style="backdrop-filter:blur(4.3px);clip-path:url(#bgblur_0_439_4626_clip_path);height:100%;width:100%"></div></foreignObject><circle data-figma-bg-blur-radius="8.6" cx="27.1428" cy="27.1428" r="26.6428" fill="#343434" stroke="#6A6767"/>
<path d="M19.7021 40.2427L19.7021 41.5927L21.9161 41.5927L21.9161 40.2427L19.7021 40.2427ZM21.9161 42.1957L19.7021 42.1957L19.7021 42.9607L19.0541 42.9607L19.0541 37.7137L21.9161 37.7137L21.9161 36.4807L22.5731 36.4807L22.5731 37.7137L25.4891 37.7137L25.4891 42.1957L22.5731 42.1957L22.5731 43.3027C22.5731 43.7437 22.7711 43.9687 23.1671 43.9687L25.2191 43.9687C25.4441 43.9687 25.6061 43.9147 25.7141 43.8157C25.8041 43.7077 25.8671 43.3567 25.9031 42.7447L26.5151 42.9517C26.4611 43.7167 26.3621 44.1847 26.2001 44.3467C26.0381 44.4997 25.7501 44.5807 25.3271 44.5807L23.0141 44.5807C22.2761 44.5807 21.9161 44.1847 21.9161 43.4017L21.9161 42.1957ZM22.5731 41.5927L24.8501 41.5927L24.8501 40.2427L22.5731 40.2427L22.5731 41.5927ZM24.8501 39.6487L24.8501 38.3257L22.5731 38.3257L22.5731 39.6487L24.8501 39.6487ZM21.9161 38.3257L19.7021 38.3257L19.7021 39.6487L21.9161 39.6487L21.9161 38.3257ZM34.5751 44.4997L31.8391 44.4997C31.1641 44.4997 30.8311 44.1487 30.8311 43.4647L30.8311 40.0177L30.0841 40.2697L30.0841 39.6127L30.8311 39.3607L30.8311 37.2457L31.4791 37.2457L31.4791 39.1447L32.7931 38.7037L32.7931 36.4537L33.4321 36.4537L33.4321 38.4877L35.4211 37.8127C35.4211 39.7297 35.3761 40.8907 35.3041 41.3047C35.2231 41.7007 34.8811 41.9077 34.2781 41.9077L34.0801 41.9077L33.9001 41.2957C34.0981 41.2957 34.2601 41.3047 34.3951 41.3047C34.5751 41.3047 34.6921 41.1967 34.7371 40.9807C34.7731 40.7737 34.7911 40.0087 34.8001 38.6947L33.4321 39.1447L33.4321 42.7267L32.7931 42.7267L32.7931 39.3607L31.4791 39.8017L31.4791 43.3657C31.4791 43.7077 31.6501 43.8787 31.9921 43.8787L34.4581 43.8787C34.7551 43.8787 34.9711 43.8067 35.1061 43.6807C35.2321 43.5547 35.3131 43.0867 35.3491 42.2947L35.9611 42.4927C35.8981 43.4287 35.7721 44.0047 35.5921 44.2027C35.4031 44.4007 35.0611 44.4997 34.5751 44.4997ZM28.4551 36.6427C29.0851 37.0927 29.6071 37.5337 30.0391 37.9837L29.5801 38.4517C29.1931 38.0197 28.6621 37.5697 27.9961 37.0927L28.4551 36.6427ZM28.3021 38.8477C28.8781 39.2797 29.3641 39.7207 29.7601 40.1617L29.3011 40.6207C28.9501 40.2067 28.4641 39.7657 27.8431 39.2977L28.3021 38.8477ZM29.2651 41.2687L29.8501 41.5027C29.4721 42.6367 29.0401 43.6987 28.5541 44.6887L27.9061 44.4097C28.4281 43.3837 28.8871 42.3397 29.2651 41.2687Z" fill="#BBBBBB"/>
<path d="M19.0554 28.5697H35.1009C37.0486 28.5697 38.0132 27.5994 38.0132 25.6775V17.8501C38.0132 15.9376 37.0486 14.9673 35.1009 14.9673H34.0714V13.7172C34.0714 13.0081 33.6633 12.579 32.9491 12.579H31.0942C30.3893 12.579 29.9812 13.0081 29.9812 13.7172V14.9673H24.1844V13.7172C24.1844 13.0081 23.7763 12.579 23.0621 12.579H21.2072C20.493 12.579 20.0849 13.0081 20.0849 13.7172V14.9673H19.0554C17.1169 14.9673 16.1431 15.9283 16.1431 17.8501V25.6775C16.1431 27.6087 17.1169 28.5697 19.0554 28.5697ZM17.6363 25.6029V17.9341C17.6363 16.9638 18.1464 16.4694 19.0739 16.4694H35.0823C36.0006 16.4694 36.52 16.9638 36.52 17.9341V25.6029C36.52 26.5638 36.0006 27.0676 35.0823 27.0676H19.0739C18.1464 27.0676 17.6363 26.5638 17.6363 25.6029Z" fill="#BBBBBB"/>
<path d="M20.8824 22.4403H24.75C25.1303 22.4403 25.4271 22.1417 25.4271 21.7592C25.4271 21.3674 25.1303 21.0688 24.75 21.0688H20.8824C20.5021 21.0688 20.196 21.3674 20.196 21.7592C20.196 22.1417 20.5021 22.4403 20.8824 22.4403ZM31.3259 24.5674C31.7062 24.5674 32.003 24.2688 32.003 23.8863V22.4403H33.4406C33.8208 22.4403 34.1269 22.1417 34.1269 21.7592C34.1269 21.3674 33.8208 21.0688 33.4406 21.0688H32.003V19.6227C32.003 19.2403 31.7062 18.9324 31.3259 18.9324C30.9456 18.9324 30.6396 19.2403 30.6396 19.6227V21.0688H29.202C28.8217 21.0688 28.5249 21.3674 28.5249 21.7592C28.5249 22.1417 28.8217 22.4403 29.202 22.4403H30.6396V23.8863C30.6396 24.2688 30.9456 24.5674 31.3259 24.5674Z" fill="#BBBBBB"/>
<defs>
<clipPath id="bgblur_0_439_4626_clip_path" transform="translate(8.6 8.6)"><circle cx="27.1428" cy="27.1428" r="26.6428"/>
</clipPath></defs>
</svg>
